# xmcd
#
# Track frame offsets: 
#        150
#        12323
#        21934
#        32517
#        45071
#        55495
#        68843
#        77338
#        89892
#        104640
#        113333
#        127846
#        141372
#        155932
#
# Disc length: 2225 seconds
#
# Revision: 0
# Processed by: cddbd v1.5.2PL0 Copyright (c) Steve Scherf et al.
# Submitted via: ExactAudioCopyFreeDBPlugin 1.0
#
DISCID=b308af0e
DTITLE=Dolly Parton - 1974 - Jolene
DYEAR=1974
DGENRE=
TTITLE0=Jolene
TTITLE1=When Someone Wants To Leave
TTITLE2=River Of Happiness
TTITLE3=Early Morning Breeze
TTITLE4=Highlight Of My Life
TTITLE5=I Will Always Love You
TTITLE6=Randy
TTITLE7=Living On Memories Of You
TTITLE8=Lonely Comin' Down
TTITLE9=It Must Be You
TTITLE10=Cracker Jack (Previously Unissued)
TTITLE11=Another Woman's Man (Previously Unissued)
TTITLE12=Barbara On Your Mind (Previously Unissued)
TTITLE13=Last Night's Lovin' (Previously Unissued)
EXTD=
EXTT0=
EXTT1=
EXTT2=
EXTT3=
EXTT4=
EXTT5=
EXTT6=
EXTT7=
EXTT8=
EXTT9=
EXTT10=
EXTT11=
EXTT12=
EXTT13=
PLAYORDER=
